<svg xmlns="http://www.w3.org/2000/svg" xmlns:xlink="http://www.w3.org/1999/xlink" width="300" zoomAndPan="magnify" viewBox="0 0 224.87999 37.5" height="50" preserveAspectRatio="xMidYMid meet" version="1.0"><defs><g/></defs><g fill="#06cb3f" fill-opacity="1"><g transform="translate(18.90474, 25.439856)"><g><path d="M 8.4375 0.3125 C 6.820312 0.3125 5.332031 0.015625 3.96875 -0.578125 C 2.601562 -1.171875 1.445312 -2.0625 0.5 -3.25 L 2.578125 -5.609375 C 4.242188 -3.941406 6.222656 -3.109375 8.515625 -3.109375 C 10.515625 -3.109375 11.515625 -3.691406 11.515625 -4.859375 C 11.515625 -5.453125 11.25 -5.910156 10.71875 -6.234375 C 10.195312 -6.554688 9.28125 -6.847656 7.96875 -7.109375 C 5.78125 -7.472656 4.15625 -8.054688 3.09375 -8.859375 C 2.03125 -9.671875 1.5 -10.867188 1.5 -12.453125 C 1.5 -13.492188 1.789062 -14.398438 2.375 -15.171875 C 2.957031 -15.953125 3.757812 -16.550781 4.78125 -16.96875 C 5.8125 -17.382812 6.960938 -17.59375 8.234375 -17.59375 C 9.679688 -17.59375 10.972656 -17.351562 12.109375 -16.875 C 13.242188 -16.40625 14.273438 -15.644531 15.203125 -14.59375 L 13.125 -12.265625 C 12.34375 -12.984375 11.585938 -13.484375 10.859375 -13.765625 C 10.128906 -14.054688 9.300781 -14.203125 8.375 -14.203125 C 6.34375 -14.203125 5.328125 -13.648438 5.328125 -12.546875 C 5.328125 -12.140625 5.453125 -11.8125 5.703125 -11.5625 C 5.953125 -11.3125 6.320312 -11.109375 6.8125 -10.953125 C 7.300781 -10.804688 8.035156 -10.632812 9.015625 -10.4375 C 11.128906 -10.007812 12.71875 -9.390625 13.78125 -8.578125 C 14.84375 -7.765625 15.375 -6.535156 15.375 -4.890625 C 15.375 -3.203125 14.757812 -1.910156 13.53125 -1.015625 C 12.300781 -0.128906 10.601562 0.3125 8.4375 0.3125 Z M 8.4375 0.3125 "/></g></g></g><g fill="#06cb3f" fill-opacity="1"><g transform="translate(35.441558, 25.439856)"><g><path d="M 2.03125 5.390625 L 2.03125 -13.1875 L 5.140625 -13.1875 C 5.304688 -12.789062 5.441406 -12.1875 5.546875 -11.375 C 6.117188 -12.039062 6.789062 -12.554688 7.5625 -12.921875 C 8.34375 -13.296875 9.1875 -13.484375 10.09375 -13.484375 C 11.320312 -13.484375 12.390625 -13.1875 13.296875 -12.59375 C 14.203125 -12 14.894531 -11.179688 15.375 -10.140625 C 15.851562 -9.097656 16.09375 -7.910156 16.09375 -6.578125 C 16.09375 -5.222656 15.835938 -4.023438 15.328125 -2.984375 C 14.816406 -1.953125 14.097656 -1.144531 13.171875 -0.5625 C 12.253906 0.0195312 11.1875 0.3125 9.96875 0.3125 C 8.28125 0.3125 6.898438 -0.269531 5.828125 -1.4375 L 5.828125 5.390625 Z M 9.1875 -2.9375 C 10.09375 -2.9375 10.835938 -3.226562 11.421875 -3.8125 C 12.003906 -4.394531 12.296875 -5.296875 12.296875 -6.515625 C 12.296875 -7.753906 12.007812 -8.679688 11.4375 -9.296875 C 10.863281 -9.921875 10.128906 -10.234375 9.234375 -10.234375 C 8.222656 -10.234375 7.398438 -9.9375 6.765625 -9.34375 C 6.140625 -8.757812 5.828125 -7.945312 5.828125 -6.90625 L 5.828125 -6.4375 C 5.828125 -5.289062 6.144531 -4.421875 6.78125 -3.828125 C 7.425781 -3.234375 8.226562 -2.9375 9.1875 -2.9375 Z M 9.1875 -2.9375 "/></g></g></g><g fill="#06cb3f" fill-opacity="1"><g transform="translate(52.866245, 25.439856)"><g><path d="M 8.375 0.3125 C 6.957031 0.3125 5.710938 0.00390625 4.640625 -0.609375 C 3.578125 -1.222656 2.757812 -2.050781 2.1875 -3.09375 C 1.613281 -4.132812 1.328125 -5.304688 1.328125 -6.609375 C 1.328125 -7.847656 1.617188 -8.988281 2.203125 -10.03125 C 2.785156 -11.070312 3.613281 -11.90625 4.6875 -12.53125 C 5.757812 -13.164062 6.988281 -13.484375 8.375 -13.484375 C 9.78125 -13.484375 11.007812 -13.175781 12.0625 -12.5625 C 13.125 -11.957031 13.941406 -11.128906 14.515625 -10.078125 C 15.085938 -9.035156 15.375 -7.878906 15.375 -6.609375 C 15.375 -5.378906 15.082031 -4.234375 14.5 -3.171875 C 13.914062 -2.109375 13.09375 -1.257812 12.03125 -0.625 C 10.96875 0 9.75 0.3125 8.375 0.3125 Z M 8.359375 -2.9375 C 9.410156 -2.9375 10.207031 -3.289062 10.75 -4 C 11.300781 -4.71875 11.578125 -5.585938 11.578125 -6.609375 C 11.578125 -7.617188 11.300781 -8.472656 10.75 -9.171875 C 10.207031 -9.878906 9.414062 -10.234375 8.375 -10.234375 C 7.320312 -10.234375 6.519531 -9.878906 5.96875 -9.171875 C 5.414062 -8.472656 5.140625 -7.617188 5.140625 -6.609375 C 5.140625 -5.585938 5.414062 -4.71875 5.96875 -4 C 6.519531 -3.289062 7.316406 -2.9375 8.359375 -2.9375 Z M 8.359375 -2.9375 "/></g></g></g><g fill="#06cb3f" fill-opacity="1"><g transform="translate(69.569529, 25.439856)"><g><path d="M 8.796875 0.3125 C 6.960938 0.3125 5.570312 -0.1875 4.625 -1.1875 C 3.6875 -2.1875 3.21875 -3.742188 3.21875 -5.859375 L 3.21875 -10.015625 L 0.609375 -10.015625 L 0.609375 -13.1875 L 3.21875 -13.1875 L 3.21875 -16.734375 L 7.015625 -16.734375 L 7.015625 -13.1875 L 12.234375 -13.1875 L 12.234375 -10.015625 L 7.015625 -10.015625 L 7.015625 -5.71875 C 7.015625 -4.789062 7.21875 -4.09375 7.625 -3.625 C 8.03125 -3.164062 8.613281 -2.9375 9.375 -2.9375 C 10.132812 -2.9375 10.867188 -3.195312 11.578125 -3.71875 L 13.15625 -1.359375 C 12.613281 -0.835938 11.972656 -0.425781 11.234375 -0.125 C 10.492188 0.164062 9.679688 0.3125 8.796875 0.3125 Z M 8.796875 0.3125 "/></g></g></g><g fill="#06cb3f" fill-opacity="1"><g transform="translate(83.054241, 25.439856)"><g/></g></g><g fill="#06cb3f" fill-opacity="1"><g transform="translate(89.491384, 25.439856)"><g><path d="M 9.96875 0.3125 C 9.039062 0.3125 8.203125 0.128906 7.453125 -0.234375 C 6.703125 -0.597656 6.054688 -1.101562 5.515625 -1.75 C 5.429688 -1.082031 5.304688 -0.5 5.140625 0 L 2.03125 0 L 2.03125 -18.703125 L 5.828125 -18.703125 L 5.828125 -11.625 C 6.378906 -12.21875 7.015625 -12.675781 7.734375 -13 C 8.460938 -13.320312 9.25 -13.484375 10.09375 -13.484375 C 11.320312 -13.484375 12.390625 -13.1875 13.296875 -12.59375 C 14.203125 -12 14.894531 -11.175781 15.375 -10.125 C 15.851562 -9.070312 16.09375 -7.878906 16.09375 -6.546875 C 16.09375 -5.210938 15.835938 -4.023438 15.328125 -2.984375 C 14.816406 -1.953125 14.097656 -1.144531 13.171875 -0.5625 C 12.253906 0.0195312 11.1875 0.3125 9.96875 0.3125 Z M 9.1875 -2.9375 C 10.09375 -2.9375 10.835938 -3.222656 11.421875 -3.796875 C 12.003906 -4.367188 12.296875 -5.273438 12.296875 -6.515625 C 12.296875 -7.753906 12.007812 -8.679688 11.4375 -9.296875 C 10.863281 -9.921875 10.128906 -10.234375 9.234375 -10.234375 C 8.222656 -10.234375 7.398438 -9.9375 6.765625 -9.34375 C 6.140625 -8.757812 5.828125 -7.945312 5.828125 -6.90625 L 5.828125 -6.4375 C 5.828125 -5.269531 6.144531 -4.394531 6.78125 -3.8125 C 7.425781 -3.226562 8.226562 -2.9375 9.1875 -2.9375 Z M 9.1875 -2.9375 "/></g></g></g><g fill="#06cb3f" fill-opacity="1"><g transform="translate(106.499867, 25.439856)"><g><path d="M 4.4375 5.6875 C 3.4375 5.6875 2.597656 5.503906 1.921875 5.140625 C 1.253906 4.785156 0.660156 4.21875 0.140625 3.4375 L 2.140625 1.53125 C 2.429688 1.875 2.707031 2.117188 2.96875 2.265625 C 3.226562 2.421875 3.539062 2.5 3.90625 2.5 C 4.375 2.5 4.765625 2.304688 5.078125 1.921875 C 5.390625 1.546875 5.695312 0.960938 6 0.171875 L 6.125 -0.21875 L 0.3125 -13.1875 L 4.5 -13.1875 L 7.9375 -4.28125 L 10.96875 -13.1875 L 15.09375 -13.1875 L 9.484375 0.75 C 8.898438 2.25 8.222656 3.445312 7.453125 4.34375 C 6.679688 5.238281 5.675781 5.6875 4.4375 5.6875 Z M 4.4375 5.6875 "/></g></g></g><g fill="#06cb3f" fill-opacity="1"><g transform="translate(121.954567, 25.439856)"><g/></g></g><g fill="#06cb3f" fill-opacity="1"><g transform="translate(128.391709, 25.439856)"><g><path d="M 8.4375 0.3125 C 6.820312 0.3125 5.332031 0.015625 3.96875 -0.578125 C 2.601562 -1.171875 1.445312 -2.0625 0.5 -3.25 L 2.578125 -5.609375 C 4.242188 -3.941406 6.222656 -3.109375 8.515625 -3.109375 C 10.515625 -3.109375 11.515625 -3.691406 11.515625 -4.859375 C 11.515625 -5.453125 11.25 -5.910156 10.71875 -6.234375 C 10.195312 -6.554688 9.28125 -6.847656 7.96875 -7.109375 C 5.78125 -7.472656 4.15625 -8.054688 3.09375 -8.859375 C 2.03125 -9.671875 1.5 -10.867188 1.5 -12.453125 C 1.5 -13.492188 1.789062 -14.398438 2.375 -15.171875 C 2.957031 -15.953125 3.757812 -16.550781 4.78125 -16.96875 C 5.8125 -17.382812 6.960938 -17.59375 8.234375 -17.59375 C 9.679688 -17.59375 10.972656 -17.351562 12.109375 -16.875 C 13.242188 -16.40625 14.273438 -15.644531 15.203125 -14.59375 L 13.125 -12.265625 C 12.34375 -12.984375 11.585938 -13.484375 10.859375 -13.765625 C 10.128906 -14.054688 9.300781 -14.203125 8.375 -14.203125 C 6.34375 -14.203125 5.328125 -13.648438 5.328125 -12.546875 C 5.328125 -12.140625 5.453125 -11.8125 5.703125 -11.5625 C 5.953125 -11.3125 6.320312 -11.109375 6.8125 -10.953125 C 7.300781 -10.804688 8.035156 -10.632812 9.015625 -10.4375 C 11.128906 -10.007812 12.71875 -9.390625 13.78125 -8.578125 C 14.84375 -7.765625 15.375 -6.535156 15.375 -4.890625 C 15.375 -3.203125 14.757812 -1.910156 13.53125 -1.015625 C 12.300781 -0.128906 10.601562 0.3125 8.4375 0.3125 Z M 8.4375 0.3125 "/></g></g></g><g fill="#06cb3f" fill-opacity="1"><g transform="translate(144.928527, 25.439856)"><g><path d="M 2.03125 5.390625 L 2.03125 -13.1875 L 5.140625 -13.1875 C 5.304688 -12.789062 5.441406 -12.1875 5.546875 -11.375 C 6.117188 -12.039062 6.789062 -12.554688 7.5625 -12.921875 C 8.34375 -13.296875 9.1875 -13.484375 10.09375 -13.484375 C 11.320312 -13.484375 12.390625 -13.1875 13.296875 -12.59375 C 14.203125 -12 14.894531 -11.179688 15.375 -10.140625 C 15.851562 -9.097656 16.09375 -7.910156 16.09375 -6.578125 C 16.09375 -5.222656 15.835938 -4.023438 15.328125 -2.984375 C 14.816406 -1.953125 14.097656 -1.144531 13.171875 -0.5625 C 12.253906 0.0195312 11.1875 0.3125 9.96875 0.3125 C 8.28125 0.3125 6.898438 -0.269531 5.828125 -1.4375 L 5.828125 5.390625 Z M 9.1875 -2.9375 C 10.09375 -2.9375 10.835938 -3.226562 11.421875 -3.8125 C 12.003906 -4.394531 12.296875 -5.296875 12.296875 -6.515625 C 12.296875 -7.753906 12.007812 -8.679688 11.4375 -9.296875 C 10.863281 -9.921875 10.128906 -10.234375 9.234375 -10.234375 C 8.222656 -10.234375 7.398438 -9.9375 6.765625 -9.34375 C 6.140625 -8.757812 5.828125 -7.945312 5.828125 -6.90625 L 5.828125 -6.4375 C 5.828125 -5.289062 6.144531 -4.421875 6.78125 -3.828125 C 7.425781 -3.234375 8.226562 -2.9375 9.1875 -2.9375 Z M 9.1875 -2.9375 "/></g></g></g><g fill="#06cb3f" fill-opacity="1"><g transform="translate(162.353214, 25.439856)"><g><path d="M 8.21875 0.3125 C 6.789062 0.3125 5.554688 0.0195312 4.515625 -0.5625 C 3.484375 -1.144531 2.691406 -1.953125 2.140625 -2.984375 C 1.597656 -4.023438 1.328125 -5.222656 1.328125 -6.578125 C 1.328125 -7.816406 1.597656 -8.960938 2.140625 -10.015625 C 2.691406 -11.066406 3.46875 -11.90625 4.46875 -12.53125 C 5.46875 -13.164062 6.632812 -13.484375 7.96875 -13.484375 C 10.019531 -13.484375 11.578125 -12.859375 12.640625 -11.609375 C 13.703125 -10.359375 14.234375 -8.679688 14.234375 -6.578125 L 14.234375 -5.71875 L 4.90625 -5.71875 C 5.0625 -4.8125 5.457031 -4.085938 6.09375 -3.546875 C 6.726562 -3.015625 7.523438 -2.75 8.484375 -2.75 C 9.359375 -2.75 10.078125 -2.890625 10.640625 -3.171875 C 11.203125 -3.460938 11.722656 -3.875 12.203125 -4.40625 L 14.265625 -2.71875 C 13.648438 -1.695312 12.820312 -0.9375 11.78125 -0.4375 C 10.738281 0.0625 9.550781 0.3125 8.21875 0.3125 Z M 10.734375 -8.1875 C 10.640625 -8.976562 10.363281 -9.582031 9.90625 -10 C 9.457031 -10.414062 8.835938 -10.625 8.046875 -10.625 C 7.253906 -10.625 6.59375 -10.414062 6.0625 -10 C 5.53125 -9.582031 5.175781 -8.976562 5 -8.1875 Z M 10.734375 -8.1875 "/></g></g></g><g fill="#06cb3f" fill-opacity="1"><g transform="translate(178.002137, 25.439856)"><g><path d="M 8.046875 0.3125 C 6.679688 0.3125 5.488281 0.015625 4.46875 -0.578125 C 3.445312 -1.171875 2.664062 -1.988281 2.125 -3.03125 C 1.59375 -4.082031 1.328125 -5.273438 1.328125 -6.609375 C 1.328125 -7.898438 1.613281 -9.066406 2.1875 -10.109375 C 2.757812 -11.160156 3.554688 -11.984375 4.578125 -12.578125 C 5.597656 -13.179688 6.753906 -13.484375 8.046875 -13.484375 C 10.484375 -13.484375 12.28125 -12.46875 13.4375 -10.4375 L 11.1875 -8.734375 C 10.8125 -9.253906 10.410156 -9.632812 9.984375 -9.875 C 9.566406 -10.113281 9.015625 -10.234375 8.328125 -10.234375 C 7.304688 -10.234375 6.519531 -9.894531 5.96875 -9.21875 C 5.414062 -8.550781 5.140625 -7.679688 5.140625 -6.609375 C 5.140625 -5.546875 5.425781 -4.664062 6 -3.96875 C 6.570312 -3.28125 7.363281 -2.9375 8.375 -2.9375 C 9.0625 -2.9375 9.628906 -3.078125 10.078125 -3.359375 C 10.535156 -3.640625 10.96875 -4.046875 11.375 -4.578125 L 13.65625 -2.90625 C 12.46875 -0.757812 10.597656 0.3125 8.046875 0.3125 Z M 8.046875 0.3125 "/></g></g></g><g fill="#06cb3f" fill-opacity="1"><g transform="translate(192.374718, 25.439856)"><g><path d="M 7.046875 0.3125 C 5.640625 0.3125 4.453125 0.128906 3.484375 -0.234375 C 2.515625 -0.597656 1.628906 -1.160156 0.828125 -1.921875 L 2.5 -4.078125 C 3.070312 -3.597656 3.6875 -3.25 4.34375 -3.03125 C 5 -2.820312 5.757812 -2.71875 6.625 -2.71875 C 7.3125 -2.71875 7.832031 -2.800781 8.1875 -2.96875 C 8.539062 -3.132812 8.71875 -3.429688 8.71875 -3.859375 C 8.71875 -4.242188 8.535156 -4.53125 8.171875 -4.71875 C 7.804688 -4.90625 7.164062 -5.0625 6.25 -5.1875 C 4.65625 -5.40625 3.46875 -5.859375 2.6875 -6.546875 C 1.914062 -7.234375 1.53125 -8.1875 1.53125 -9.40625 C 1.53125 -10.195312 1.757812 -10.898438 2.21875 -11.515625 C 2.675781 -12.140625 3.320312 -12.625 4.15625 -12.96875 C 4.988281 -13.3125 5.941406 -13.484375 7.015625 -13.484375 C 8.128906 -13.484375 9.109375 -13.3125 9.953125 -12.96875 C 10.796875 -12.625 11.585938 -12.101562 12.328125 -11.40625 L 10.59375 -9.359375 C 10.082031 -9.816406 9.570312 -10.132812 9.0625 -10.3125 C 8.550781 -10.488281 7.9375 -10.578125 7.21875 -10.578125 C 5.882812 -10.578125 5.21875 -10.207031 5.21875 -9.46875 C 5.21875 -9.09375 5.382812 -8.828125 5.71875 -8.671875 C 6.050781 -8.515625 6.726562 -8.34375 7.75 -8.15625 C 9.300781 -7.882812 10.46875 -7.414062 11.25 -6.75 C 12.039062 -6.09375 12.4375 -5.128906 12.4375 -3.859375 C 12.4375 -3.078125 12.21875 -2.375 11.78125 -1.75 C 11.34375 -1.125 10.71875 -0.625 9.90625 -0.25 C 9.09375 0.125 8.140625 0.3125 7.046875 0.3125 Z M 7.046875 0.3125 "/></g></g></g></svg>